<svg width="100" height="100" viewBox="0 0 100 100" fill="none" xmlns="http://www.w3.org/2000/svg">
    <style>
        #BG {
        fill: #663399;
        }
        #API>path {
        fill: white;
        }
        @media (prefers-color-scheme: dark) {
        #BG {
        fill: #1e0e2e;
        }
        #API>path {
        fill: #bfafcf;
        }
        }
    </style>
    <g id="Favicon" clip-path="url(#clip0_2_2)">
        <circle id="BG" cx="50" cy="50" r="50" fill="#663399" />
        <g id="API">
            <path
                d="M46.033 57.0116C46.6162 57.0116 46.9078 57.8051 46.9078 59.392C46.9078 60.2544 46.5476 61.3066 45.8272 62.5485C45.1068 63.7559 44.1635 64.8771 42.9971 65.912C41.8651 66.9125 40.5958 67.7404 39.1893 68.3959C37.7829 69.0513 36.4107 69.379 35.0728 69.379C33.0489 69.379 31.6424 68.8788 30.8534 67.8784C30.0987 66.8435 29.7214 65.3428 29.7214 63.3765C29.7214 61.3756 30.4932 57.9603 32.0369 53.1307C27.3029 52.9237 23.8554 52.8202 21.6942 52.8202H20.9738C20.3563 56.6494 20.0476 60.6684 20.0476 64.8771C20.0476 66.74 19.3443 68.0164 17.9379 68.7063C17.2861 69.0168 16.6515 69.31 16.034 69.586C15.4508 69.862 14.8162 70 14.1301 70C12.4149 70 11.5573 68.4476 11.5573 65.3428C11.5573 62.238 12.2605 58.2536 13.667 53.3894C12.1576 53.5619 10.8197 53.7344 9.6534 53.9069C8.52136 54.0793 7.62945 54.1656 6.97767 54.1656C6.32589 54.1656 6 53.9931 6 53.6481C6 52.6132 6.84045 51.561 8.52136 50.4916C10.2366 49.4222 12.5521 48.6115 15.468 48.0595C18.6926 39.8146 22.6376 34.3122 27.3029 31.5524C29.0181 30.5175 30.8363 30 32.7573 30C36.1877 30.0345 38.6576 30.9659 40.167 32.7943C41.7107 34.6227 42.4826 37.0548 42.4826 40.0906C42.5169 43.0918 41.6078 47.0073 39.7554 51.837C39.0693 53.6999 38.4347 55.3903 37.8515 56.9082C37.2683 58.426 36.9767 59.6507 36.9767 60.5821C36.9767 61.5136 37.0453 62.2208 37.1825 62.7038C37.3198 63.1867 37.6457 63.4282 38.1602 63.4282C39.0864 63.4282 41.2648 61.6343 44.6952 58.0466C45.3127 57.3566 45.7586 57.0116 46.033 57.0116ZM35.0728 41.5912C35.0728 38.5899 33.9579 37.0893 31.7282 37.0893C29.4641 37.0893 27.5088 38.0552 25.8622 39.9871C24.2499 41.8844 22.9977 44.4373 22.1058 47.6455L33.7864 47.8008C34.644 45.041 35.0728 42.9711 35.0728 41.5912Z"
                fill="white" />
            <path
                d="M57.6561 66.947C57.6561 68.9823 55.6836 70 51.7387 70C50.8811 70 50.3665 69.5688 50.195 68.7063C50.0578 67.8094 49.9891 66.5675 49.9891 64.9806C49.9891 61.6343 50.6581 57.4946 51.9959 52.5614C54.2257 44.42 56.6099 39.6248 59.1484 38.1759C59.4914 37.969 59.8688 37.8655 60.2804 37.8655C60.6921 37.8655 60.8979 38.5382 60.8979 39.8836C60.8979 41.229 60.8293 42.4191 60.6921 43.4541C60.4176 45.5239 59.9202 48.1975 59.1998 51.4748C58.5137 54.752 58.1707 56.6839 58.1707 57.2704L57.6561 66.947ZM61.1552 53.0272C61.1552 52.5787 61.3953 52.2855 61.8756 52.1475C62.3901 52.0095 63.0248 51.8887 63.7794 51.7853C64.5341 51.6473 65.3574 51.4575 66.2494 51.216C67.1413 50.9746 67.9646 50.5261 68.7193 49.8706C70.4688 48.3527 71.3435 45.8172 71.3435 42.2639C71.3435 39.9871 70.5717 38.2449 69.028 37.0375C67.5186 35.8301 65.3231 35.2264 62.4416 35.2264C59.5943 35.2264 56.9186 35.8301 54.4144 37.0375C53.4882 37.486 52.6477 37.9 51.893 38.2794C51.1726 38.6589 50.5037 38.8486 49.8862 38.8486C49.2688 38.8486 48.96 38.6589 48.96 38.2794C48.96 37.693 49.526 36.727 50.6581 35.3816C51.7901 34.1397 53.5739 32.984 56.0095 31.9146C58.4794 30.8452 61.0694 30.3105 63.7794 30.3105C68.8908 30.276 72.8701 31.4834 75.7173 33.9327C78.1872 36.0716 79.4222 38.8486 79.4222 42.2639C79.4222 45.6447 78.2044 48.6805 75.7688 51.3713C73.3332 54.0276 70.2801 55.3558 66.6095 55.3558C62.9733 55.3558 61.1552 54.5796 61.1552 53.0272Z"
                fill="white" />
            <path
                d="M88.3913 68.0336C88.3913 68.9996 87.7052 69.4825 86.333 69.4825C84.1718 69.4825 82.6968 69.0686 81.9078 68.2406C81.1188 67.3782 80.7243 65.9465 80.7243 63.9457C80.7586 60.8409 81.599 55.8732 83.2456 49.0427C84.9265 42.2122 86.5045 37.141 87.9796 33.8292C88.357 32.9668 88.8887 32.1561 89.5748 31.3972C90.2608 30.6037 91.1699 30.207 92.3019 30.207C92.7822 30.207 93.1767 30.5002 93.4854 31.0867C93.8285 31.6731 94 32.3458 94 33.1048C94 33.8637 93.8628 35.0022 93.5884 36.5201C93.3139 38.0034 92.9709 39.7111 92.5592 41.6429C92.1476 43.5748 91.6845 45.6619 91.1699 47.9043C89.3175 56.4252 88.3913 63.135 88.3913 68.0336Z"
                fill="white" />
        </g>
    </g>
    <defs>
        <clipPath id="clip0_2_2">
            <rect width="100" height="100" fill="white" />
        </clipPath>
    </defs>
</svg>
    